<?xml version="1.0" encoding="utf-8"?>
<!-- Generator: Adobe Illustrator 16.0.0, SVG Export Plug-In . SVG Version: 6.00 Build 0)  -->
<!DOCTYPE svg PUBLIC "-//W3C//DTD SVG 1.1//EN" "http://www.w3.org/Graphics/SVG/1.1/DTD/svg11.dtd">
<svg version="1.1" id="Layer_1" xmlns="http://www.w3.org/2000/svg" xmlns:xlink="http://www.w3.org/1999/xlink" x="0px" y="0px"
	 width="600px" height="600px" viewBox="0 0 600 600" enable-background="new 0 0 600 600" xml:space="preserve">
<path fill="#00AEEF" d="M514.434,286.863c0-117.372-95.15-212.521-212.522-212.521S89.39,169.491,89.39,286.863
	c0,106.07,77.711,193.984,179.305,209.933l81.346,58.025c2.786,1.986,6.656,1.34,8.643-1.447l66.729-93.547
	C479.305,421.279,514.434,358.177,514.434,286.863z"/>
<circle fill="#E6E7E8" cx="301.912" cy="286.863" r="186.897"/>
<path fill="#FAB49B" d="M459.501,382.548c-1.22-6.384-15.28-60.437-15.396-60.812c-3.149-10.249-7.374-23.511-11.675-38.375
	c6.389-4.109,9.766-15.406,7.743-27.868c-2.4-14.796-11.5-25.629-20.325-24.198c-0.116,0.018-0.229,0.048-0.345,0.07
	c-1.749-8.868-3.219-17.764-4.251-26.479c-0.356-3.007-0.902-7.659-1.383-10.551c-18.553,5.895-40.96,12.918-68.26,17.346
	c-99.686,16.171-158.602,6.93-193.043-7.365c-4.799,21.555-5.278,45.542-0.755,71.274c-1.465-0.29-2.944-0.337-4.418-0.098
	c-10.889,1.767-17.316,17.999-14.354,36.256c2.962,18.258,14.19,31.626,25.079,29.858c2.398-0.389,4.578-1.479,6.491-3.137
	c1.897,10.119,13.54,61.114,17.071,79.606c12.019,62.929,114.763,94.123,167.441,85.618
	C394.142,491.62,470.483,440.052,459.501,382.548z"/>
<path fill="#006A93" d="M360.127,121.203c0.952,1.026,41.126,57.104,41.126,57.104l6.979-1.132l3.555-45.471L360.127,121.203z"/>
<path fill="#F0AE96" d="M364.717,113.69l-190.108,38.305c-11.089,15.131-19.097,32.823-23.491,52.556
	c34.441,14.295,93.358,23.535,193.042,7.366c27.298-4.43,49.827-9.743,68.379-15.637
	C406.268,158.599,389.457,130.669,364.717,113.69z"/>
<path fill="#886255" d="M144.039,225.882l-0.033,28.721l-2.643,6.92l2.152,5.158l-1.246,6.497l2.956,4.043l10.502,20.72l17.5,12.06
	c0,0-5.355-20.915-3.972-24.483c1.383-3.567-4.992-14.973-5.356-18.43c-0.363-3.457-3.151-23.068-3.369-24.408
	c-0.216-1.342,5.937-24.651,21.15-31.797L144.039,225.882z"/>
<path fill="#00AEEF" d="M204.681,63.812c0,0,14.395-6.286,34.314-10.807c92.121-20.915,131.594,18.707,139.714,68.764
	l-166.285,37.059l-30.743,52.054l-40.021-39.667l20.221-64.496l29.263-34.427L204.681,63.812z"/>
<ellipse transform="matrix(0.9826 -0.1857 0.1857 0.9826 -46.1064 52.3546)" fill="#715045" cx="256.495" cy="272.363" rx="13.591" ry="28.345"/>
<ellipse transform="matrix(0.9962 -0.0873 0.0873 0.9962 -21.0622 31.4507)" fill="#715045" cx="349.122" cy="256.582" rx="12.917" ry="26.944"/>
<g>
	<g>
		<path fill="#FFFFFF" d="M290.139,84.123c0.009-0.01,0.018-0.02,0.027-0.03c0.969-1.024,2.257-1.814,3.794-2.236
			c1.454-0.396,2.951-0.418,4.363-0.132l-3.675-14.336c-0.288-1.132-0.613-1.826-0.969-2.079c-0.358-0.253-1.094-0.307-2.207-0.162
			l-8.134,1.1c-1.113,0.156-1.776,0.402-1.987,0.741c-0.211,0.339-0.172,1.094,0.116,2.259l2.719,10.957l1.682,6.701l0.694,2.752
			C287.865,87.708,288.637,85.726,290.139,84.123z"/>
		<path fill="#FFFFFF" d="M293.25,115.697c0.289,1.102,0.61,1.754,0.968,1.962c0.358,0.206,1.094,0.166,2.208-0.12l8.133-2.05
			c1.113-0.276,1.775-0.585,1.986-0.927c0.209-0.341,0.173-1.045-0.114-2.113l-4.354-16.344c-2.683,2.846-6.839,5.534-11.944,7.561
			L293.25,115.697z"/>
		<path fill="#DEDFE0" d="M293.96,81.857c-1.537,0.422-2.825,1.212-3.794,2.236c-0.009,0.01-0.018,0.02-0.027,0.03
			c-1.502,1.603-2.274,3.584-3.577,5.535l1.951,7.687l0.429,1.677l1.191,4.646c5.105-2.027,9.262-4.715,11.944-7.561l-3.754-14.381
			C296.911,81.439,295.415,81.461,293.96,81.857z"/>
		<path fill="#FFFFFF" d="M258.375,97.146c2.359,0.677,5.833,1.146,10.226,0.698l-1.743-7.193l-1.681-6.994l-2.72-11.432
			c-0.288-1.216-0.61-1.958-0.97-2.226c-0.357-0.265-1.093-0.309-2.206-0.129l-8.13,1.351c-1.113,0.191-1.779,0.471-1.985,0.84
			c-0.213,0.371-0.177,1.185,0.111,2.437l4.831,20.799C255.644,96.291,257.143,96.79,258.375,97.146z"/>
		<path fill="#FFFFFF" d="M255.896,102.88l5.164,21.541c0.288,1.186,0.612,1.886,0.973,2.104c0.354,0.219,1.093,0.163,2.206-0.163
			l8.132-2.337c1.112-0.314,1.774-0.657,1.985-1.03c0.212-0.374,0.174-1.134-0.115-2.285l-3.177-12.807
			C266.25,107.795,260.998,106.517,255.896,102.88z"/>
		<path fill="#DEDFE0" d="M269.503,101.546l-0.903-3.703c-4.393,0.449-7.866-0.021-10.226-0.698c-1.231-0.355-2.73-0.854-4.268-1.85
			l1.789,7.584c5.103,3.637,10.354,4.915,15.167,5.023l-1.131-4.607L269.503,101.546z"/>
		<path fill="#FFFFFF" d="M303.809,88.715c0.461-1.372,0.457-2.887-0.123-4.369c-1.48-3.808-6.14-6.016-10.408-4.884
			c-1.461,0.394-2.686,1.137-3.606,2.107c-0.009,0.009-0.018,0.018-0.027,0.028c-3.121,3.327-2.916,8.372-11.942,11.132
			c-8.312,2.653-14.645,2.081-18.248,1.025c-1.856-0.551-4.353-1.445-6.62-4.033l1.728,7.373
			c13.148,11.685,28.116,5.571,33.244,3.781c8.247-2.792,14.263-7.431,15.912-11.907c0.028-0.072,0.054-0.145,0.078-0.218
			c0.006-0.018,0.014-0.035,0.02-0.053c0.003-0.007,0.006-0.017,0.008-0.024c-0.002,0.008-0.005,0.016-0.008,0.024
			C303.813,88.703,303.81,88.708,303.809,88.715z"/>
		<path fill="#DEDFE0" d="M299.151,81.493c0,0,4.506,1.733,3.746,7.037C302.897,88.53,302.252,84.388,299.151,81.493z"/>
	</g>
</g>
<path fill="#009FE3" d="M144.006,254.603c0,0,13.168-30.792,37.675-43.721c-11.887-40.711-18.375-113.274,23-147.069
	C204.681,63.812,98.112,96.441,144.006,254.603z"/>
<path fill="#0092C8" d="M181.681,210.882c0,0,41.767-60.482,152.342-73.414c43.913-5.135,73.801-8.803,74.209,39.707
	c0,0,21.339-52.89,11.157-76.207c-11.188-25.622-75.744-20.165-140.013,5.012C217.627,130.169,184.605,171.631,181.681,210.882z"/>
<ellipse transform="matrix(0.9686 -0.2488 0.2488 0.9686 -6.9182 57.3757)" fill="#0092C8" cx="223.509" cy="56.055" rx="6.698" ry="2.912"/>
<path fill="none" d="M405.788,179.586c0,0,0.146,0.099,0.375,0.253C405.929,179.671,405.788,179.586,405.788,179.586z"/>
<path fill="#7D594D" d="M416.362,192.032c-0.141-0.862-0.926-7.521,0.326-8.905c1.251-1.382-8.632-7.745-8.632-7.745
	s-8.347-27.426-18.483-37.353l-6.731-2.096c0,0,21.019,35.408,22.946,43.652c0,0,0.141,0.085,0.375,0.253
	c-0.23-0.155-0.375-0.253-0.375-0.253l-0.771,4.944l-3.014,3.243l2.923,3.064c0,0,0.439,2.289,0.53,3.258
	c0.039,0.433,0.318,1.533,0.678,2.677c3.604-1.088,7.172-2.232,10.705-3.425C416.579,192.723,416.396,192.241,416.362,192.032z"/>
<path fill="#886255" d="M406.133,196.772c0.446,1.418,1.014,2.908,1.402,3.28c0.698,0.673,1.538,5.848,1.538,5.848
	s0.519,5.62,0.612,6.194c0.093,0.575,1.404,7.444,1.404,7.444l2.143,5.945l3.167-2.779l0.885-7.22l0.081-11.815
	c0,0,2.233-2.605,2.013-3.955c-0.166-1.024-1.731-4.41-2.54-6.367C413.306,194.541,409.737,195.684,406.133,196.772z"/>
<path fill="#EAA992" d="M293.64,291.132c0,0-6.726,54.618,44.027,60.202c23.346,2.568,33.942-19.33,22.074-26.813
	c0,0-38.59-1.104-49.889-9.736C298.553,306.152,294.328,298.837,293.64,291.132z"/>
<path fill="#F69B90" d="M291.994,277.546c0,0-5.438,57.102,49.252,60.748c54.689,3.647,40.864-62.013,0-48.154
	C300.383,303.999,291.994,277.546,291.994,277.546z"/>
<path fill="#DA9E89" d="M264.452,388.995c0,0,71.751,8.266,132.521-21.015C396.972,367.98,346.297,426.985,264.452,388.995z"/>
<path fill="#DA9E89" d="M350.413,422.41c0,0-13.906-1.533-25.647,4.198C324.766,426.608,334.523,415.13,350.413,422.41z"/>
<path fill="#EAA992" d="M437.25,262.5c0,0,1.25,12.875-8.375,19l5.625,16.625l-11.125-17.812
	C423.375,280.312,434.875,275.75,437.25,262.5z"/>
<g>
	<g>
		<path fill="#0092C8" d="M145.304,247.994l-0.928-0.373c0,0,0.269-0.669,0.827-1.85l0.904,0.429
			C145.569,247.337,145.308,247.986,145.304,247.994z"/>
	</g>
	<g>
		<path fill="#0092C8" d="M147.761,242.941l-0.879-0.475c0.573-1.064,1.19-2.148,1.831-3.222l0.859,0.513
			C148.938,240.818,148.329,241.89,147.761,242.941z M151.514,236.653l-0.836-0.548c0.674-1.029,1.377-2.058,2.091-3.057
			l0.814,0.582C152.876,234.617,152.181,235.635,151.514,236.653z M155.771,230.692l-0.789-0.614
			c0.763-0.979,1.548-1.947,2.335-2.875l0.763,0.646C157.303,228.768,156.525,229.724,155.771,230.692z M160.505,225.107
			l-0.734-0.679c0.837-0.907,1.703-1.803,2.572-2.666l0.705,0.71C162.189,223.325,161.334,224.211,160.505,225.107z
			 M165.705,219.957l-0.67-0.742c0.918-0.831,1.861-1.646,2.806-2.421l0.635,0.772C167.543,218.333,166.611,219.137,165.705,219.957
			z M171.354,215.311l-0.597-0.802c0.99-0.737,2.009-1.457,3.028-2.139l0.556,0.831
			C173.336,213.875,172.332,214.584,171.354,215.311z"/>
	</g>
	<g>
		<path fill="#0092C8" d="M177.438,211.244l-0.512-0.859c0.574-0.342,1.154-0.678,1.744-1.008l0.488,0.874
			C178.576,210.576,178.003,210.906,177.438,211.244z"/>
	</g>
</g>
<g>
	<g>
		<path fill="none" stroke="#0092C8" stroke-miterlimit="10" d="M207.75,63.812c0,0-0.583,0.383-1.592,1.203"/>
		<path fill="none" stroke="#0092C8" stroke-miterlimit="10" stroke-dasharray="3.9741,3.9741" d="M203.194,67.657
			c-11.6,11.207-40.082,48.596-21.772,133.855"/>
		<path fill="none" stroke="#0092C8" stroke-miterlimit="10" d="M181.845,203.452c0.144,0.648,0.289,1.298,0.438,1.952"/>
	</g>
</g>
<path fill="#F7A9A8" d="M367,297.333c0,0,10.667,7.333,5.5,25.333C372.5,322.667,373.763,305.208,367,297.333z"/>
</svg>
