<?xml version="1.0" encoding="utf-8"?>
<!-- Generator: Adobe Illustrator 16.0.0, SVG Export Plug-In . SVG Version: 6.00 Build 0)  -->
<!DOCTYPE svg PUBLIC "-//W3C//DTD SVG 1.1//EN" "http://www.w3.org/Graphics/SVG/1.1/DTD/svg11.dtd">
<svg version="1.1" id="Layer_1" xmlns="http://www.w3.org/2000/svg" xmlns:xlink="http://www.w3.org/1999/xlink" x="0px" y="0px"
	 width="600px" height="600px" viewBox="0 0 600 600" enable-background="new 0 0 600 600" xml:space="preserve">
<g>
	<path fill="#00AEEF" d="M482.443,296.493c0-100.76-81.683-182.442-182.443-182.442s-182.442,81.683-182.442,182.442
		c0,91.058,66.712,166.528,153.927,180.22l69.833,49.812c2.392,1.705,5.714,1.15,7.42-1.242l57.285-80.307
		C452.287,411.885,482.443,357.713,482.443,296.493z"/>
	<circle fill="#E6E7E8" cx="300" cy="296.493" r="160.445"/>
	<path opacity="0.1" d="M471.262,317.16c2.784-4.939,4.12-10.76,3.478-16.83c-1.645-15.514-15.557-26.759-31.073-25.115
		c-5.312,0.563-10.12,2.564-14.083,5.573c-0.039,0.029-0.076,0.059-0.115,0.087c-2.281,1.737-4.277,3.721-6.184,5.83
		c1.014-4.045,1.223-8.841,0.408-13.86c-2.061-12.702-9.871-22.002-17.447-20.773c-0.1,0.016-0.197,0.041-0.296,0.061
		c-0.779-3.952-1.495-7.909-2.126-11.849l0.22-1.785l0.069-10.142c0,0,1.916-2.236,1.729-3.396
		c-0.143-0.879-1.486-3.786-2.182-5.466c-0.223-0.536-0.379-0.95-0.408-1.129c-0.12-0.74-0.794-6.456,0.279-7.644
		c0.901-0.996-4.912-4.992-6.811-6.254c2.756-7.163,17.05-46.141,9.131-64.277c-5.068-11.605-22.893-15.781-46.703-13.964
		c-16.63-25.66-50.294-40.348-108.16-27.211c-2.726,0.619-5.329,1.276-7.783,1.944c0.095-0.26,0.119-0.515,0.057-0.756
		c-0.344-1.337-3.116-1.781-6.191-0.99c-3.077,0.79-5.291,2.514-4.947,3.852c0.104,0.404,0.432,0.725,0.919,0.956
		c-7.141,2.364-11.513,4.272-11.513,4.272s-91.486,28.011-52.088,163.788l-2.268,5.94l1.848,4.428l-1.069,5.577l1.97,2.695
		c-7.847,3.336-12.208,16.155-9.894,30.417c2.542,15.674,12.182,27.15,21.53,25.633c2.058-0.334,3.93-1.27,5.571-2.693
		c1.63,8.688,3.004,17.139,3.829,24.977l0.01-0.002c0.159,1.514,0.3,3.008,0.416,4.475c1.343,16.875-0.79,23.689,2.242,39.564
		c10.317,54.021,72.275,91.725,151.761,76.543c74.318-14.193,107.533-59.471,98.105-108.836c-1.047-5.479-2.317-7.881-3.73-11.436
		c-2.398-7.998-5.192-16.51-7.753-24.32c18.094-6.125,32.038-15.826,38.722-26.978c0.158-0.257,0.311-0.517,0.46-0.78
		c0.035-0.063,0.076-0.126,0.112-0.189c0.018-0.029,0.033-0.061,0.051-0.091c-0.018,0.03-0.037,0.059-0.053,0.089
		C471.29,317.116,471.275,317.138,471.262,317.16z M298.101,312.735l-0.017-0.003c-0.004-0.017-0.011-0.037-0.011-0.037
		C298.082,312.709,298.091,312.722,298.101,312.735z"/>
	<path fill="#FAB49B" d="M401.543,330.8l20.831-3.38c-0.102-0.331-0.207-0.666-0.307-0.99
		c-7.055-22.969-20.412-63.519-24.768-100.312c-0.306-2.581-0.672-5.107-1.086-7.59c-15.926,5.06-35.266,9.622-58.701,13.423
		c-85.576,13.882-136.154,5.949-165.72-6.323c-4.292,19.274-4.574,40.81-0.154,63.949c4.66,24.4,11.876,52.969,14.32,76.194
		l135.789-22.027c-23.081-16.705-28.676-36.049-28.676-36.049L401.543,330.8z"/>
	<path fill="#B18170" d="M434.763,366.08c-3.999-13.336-9.104-28.116-12.379-38.661c0,0-42.779-7.593-114.991,3.614
		C324.599,350.086,360.962,372.832,434.763,366.08z"/>
	<path fill="#CC9481" d="M434.763,366.08c-73.801,6.752-110.164-15.994-127.37-35.047c-1.284,0.198-2.557,0.564-3.875,0.613
		c-80.036,2.988-117.549,34.123-117.549,34.123c0.159,1.514,0.3,3.008,0.416,4.475c1.343,16.875-0.79,23.689,2.242,39.564
		c10.317,54.021,72.275,91.725,151.761,76.543c74.318-14.193,107.533-59.471,98.105-108.836
		C437.447,372.037,436.176,369.635,434.763,366.08z"/>
	<g>
		<path fill="#CC9481" d="M292.98,307.71c0,0,3.176,10.971,14.6,23.522c12.242-1.57,36.862-4.445,66.095-6.334L292.98,307.71z"/>
	</g>
	<path fill="#F0F0F0" d="M378.25,339.678c-11.633,5.41-23.205,11.143-37.128,15.139c17.777,7.916,41.833,13.406,74.199,12.715
		C416.591,349.338,402.215,328.531,378.25,339.678z"/>
	<path fill="#006A93" d="M349.976,154.279c0.818,0.88,35.305,49.021,35.305,49.021l5.992-0.972l3.051-39.035L349.976,154.279z"/>
	<path fill="#F0AE96" d="M353.917,147.83l-163.202,32.884c-9.52,12.989-16.395,28.178-20.166,45.117
		c29.566,12.271,80.145,20.205,165.72,6.323c23.435-3.802,42.775-8.364,58.702-13.423
		C389.586,186.383,375.155,162.406,353.917,147.83z"/>
	<path fill="#886255" d="M164.472,244.143l-0.029,24.656l-2.268,5.94l1.848,4.428l-1.069,5.577l2.538,3.472l9.016,17.787
		l15.022,10.354c0,0-4.597-17.956-3.41-21.019c1.188-3.062-4.285-12.854-4.597-15.821c-0.312-2.968-2.706-19.802-2.893-20.954
		c-0.187-1.151,5.096-21.162,18.157-27.296L164.472,244.143z"/>
	
		<ellipse transform="matrix(0.9871 -0.1601 0.1601 0.9871 -38.2978 68.3609)" fill="#FAB49B" cx="404.976" cy="271.788" rx="13.896" ry="23.299"/>
	<path fill="#00AEEF" d="M216.531,105.012c0,0,12.358-5.396,29.457-9.278c79.083-17.954,112.968,16.059,119.939,59.031
		l-142.749,31.814l-26.392,44.687l-34.356-34.053l17.358-55.368l25.121-29.554L216.531,105.012z"/>
	
		<ellipse transform="matrix(0.9826 -0.1856 0.1856 0.9826 -48.187 53.3832)" fill="#715045" cx="261.011" cy="284.045" rx="11.667" ry="24.333"/>
	
		<ellipse transform="matrix(0.9962 -0.0873 0.0873 0.9962 -22.3075 30.7506)" fill="#715045" cx="340.528" cy="270.498" rx="11.089" ry="23.13"/>
	<g>
		<path fill="#E98C86" d="M466.262,313.877c2.784-4.939,4.12-10.76,3.478-16.83c-1.645-15.514-15.557-26.759-31.073-25.115
			c-5.312,0.563-10.12,2.564-14.083,5.573c-0.039,0.029-0.076,0.059-0.115,0.087c-13.443,10.237-17.061,28.924-49.877,32.401
			c-30.217,3.202-50.898-3.975-62.382-10.001l-19.137,7.702c34.704,51.295,89.897,42.168,108.63,39.803
			c30.125-3.805,54.48-16.783,64.029-32.716c0.158-0.257,0.311-0.517,0.46-0.78c0.035-0.063,0.076-0.126,0.112-0.189
			c0.018-0.029,0.033-0.061,0.051-0.091c-0.018,0.03-0.037,0.059-0.053,0.089C466.29,313.833,466.275,313.854,466.262,313.877z"/>
	</g>
	<path fill="#009FE3" d="M164.443,268.799c0,0,11.306-26.435,32.343-37.533c-10.205-34.95-15.775-97.243,19.745-126.254
		C216.531,105.012,125.045,133.022,164.443,268.799z"/>
	<g>
		<g>
			<path fill="#FFFFFF" d="M279.661,120.627c0.008-0.01,0.016-0.02,0.024-0.03c0.838-1.06,1.987-1.916,3.389-2.434
				c1.326-0.488,2.713-0.613,4.042-0.432l-4.28-13.741c-0.335-1.082-0.679-1.732-1.023-1.95c-0.347-0.217-1.032-0.205-2.053,0.034
				l-7.467,1.77c-1.022,0.247-1.622,0.542-1.797,0.886c-0.175,0.345-0.095,1.069,0.24,2.169l3.167,10.354l1.958,6.351l0.808,2.612
				C277.763,124.25,278.361,122.281,279.661,120.627z"/>
			<path fill="#FFFFFF" d="M284.457,151.056c0.335,1.057,0.675,1.677,1.022,1.866c0.347,0.188,1.032,0.124,2.054-0.19l7.467-2.273
				c1.021-0.308,1.621-0.633,1.796-0.975c0.173-0.343,0.096-1.032-0.239-2.07l-5.069-15.829c-2.322,2.926-6.029,5.755-10.661,7.969
				L284.457,151.056z"/>
			<path fill="#DEDFE0" d="M283.074,118.164c-1.402,0.518-2.551,1.374-3.389,2.434c-0.008,0.01-0.016,0.021-0.024,0.03
				c-1.3,1.654-1.898,3.622-2.993,5.59l2.273,7.309l0.499,1.597l1.388,4.43c4.632-2.214,8.339-5.043,10.661-7.969l-4.373-13.853
				C285.787,117.551,284.399,117.676,283.074,118.164z"/>
			<path fill="#FFFFFF" d="M250.88,135.053c2.233,0.497,5.492,0.737,9.556,0.062l-2.03-6.703l-1.958-6.502l-3.167-10.597
				c-0.335-1.126-0.675-1.801-1.024-2.022c-0.346-0.222-1.031-0.2-2.052,0.064l-7.465,1.956c-1.021,0.271-1.624,0.588-1.796,0.95
				c-0.177,0.363-0.099,1.119,0.236,2.262l5.625,19.056C248.292,134.417,249.715,134.793,250.88,135.053z"/>
			<path fill="#FFFFFF" d="M248.89,140.56l6.014,19.911c0.335,1.1,0.678,1.744,1.026,1.938c0.343,0.193,1.031,0.119,2.052-0.221
				l7.465-2.458c1.022-0.333,1.621-0.679,1.795-1.039c0.177-0.361,0.097-1.08-0.238-2.163l-3.7-12.011
				C258.812,144.642,253.846,143.697,248.89,140.56z"/>
			<path fill="#DEDFE0" d="M261.488,138.572l-1.051-3.457c-4.064,0.675-7.323,0.434-9.556-0.062
				c-1.166-0.26-2.588-0.637-4.074-1.473l2.083,6.979c4.956,3.137,9.922,4.082,14.414,3.956l-1.317-4.308L261.488,138.572z"/>
			<path fill="#FFFFFF" d="M292.64,124.231c0.344-1.377,0.246-2.868-0.384-4.289c-1.61-3.644-6.07-5.478-9.961-4.064
				c-1.332,0.488-2.424,1.298-3.221,2.304c-0.008,0.01-0.015,0.02-0.023,0.029c-2.7,3.437-2.21,8.295-10.44,11.503
				c-7.579,3.025-13.503,2.865-16.914,2.092c-1.757-0.401-4.129-1.079-6.379-3.348l2.012,6.772
				c12.899,10.269,26.493,3.725,31.162,1.741c7.508-3.134,12.823-7.997,14.079-12.487c0.021-0.073,0.041-0.146,0.06-0.219
				c0.004-0.018,0.01-0.035,0.014-0.053c0.003-0.008,0.004-0.017,0.007-0.025c-0.002,0.008-0.005,0.016-0.007,0.025
				C292.644,124.218,292.641,124.224,292.64,124.231z"/>
			<path fill="#DEDFE0" d="M287.87,117.447c0,0,4.291,1.395,3.911,6.658C291.781,124.105,290.927,120.077,287.87,117.447z"/>
		</g>
	</g>
	<path fill="#0092C8" d="M196.786,231.266c0,0,35.855-51.922,130.78-63.023c37.698-4.409,63.355-7.557,63.707,34.086
		c0,0,18.318-45.404,9.578-65.42c-9.605-21.996-65.024-17.312-120.196,4.302C227.645,161.977,199.296,197.57,196.786,231.266z"/>
	
		<ellipse transform="matrix(0.9871 -0.1601 0.1601 0.9871 -48.2286 31.5928)" fill="#FAB49B" cx="171.955" cy="315.11" rx="17.147" ry="28.749"/>
	
		<ellipse transform="matrix(0.9685 -0.2489 0.2489 0.9685 -17.1551 61.0009)" fill="#0092C8" cx="232.694" cy="98.352" rx="5.75" ry="2.5"/>
	<path fill="none" d="M389.173,204.399c0,0,0.125,0.084,0.322,0.217C389.294,204.473,389.173,204.399,389.173,204.399z"/>
	<path fill="#7D594D" d="M398.251,215.083c-0.12-0.74-0.794-6.456,0.279-7.644c1.074-1.187-7.41-6.649-7.41-6.649
		s-7.166-23.544-15.866-32.067l-5.778-1.799c0,0,18.043,30.397,19.697,37.474c0,0,0.121,0.073,0.322,0.217
		c-0.197-0.133-0.322-0.217-0.322-0.217l-0.662,4.244l-2.588,2.784l2.511,2.632c0,0,0.376,1.965,0.454,2.797
		c0.034,0.371,0.274,1.315,0.583,2.297c3.093-0.935,6.157-1.916,9.188-2.94C398.437,215.677,398.281,215.263,398.251,215.083z"/>
	<path fill="#886255" d="M389.471,219.153c0.382,1.218,0.87,2.496,1.202,2.816c0.6,0.578,1.32,5.02,1.32,5.02
		s0.445,4.824,0.525,5.318s1.205,6.39,1.205,6.39l1.841,5.104l2.718-2.386l0.761-6.199l0.069-10.142c0,0,1.916-2.236,1.729-3.396
		c-0.143-0.879-1.486-3.786-2.182-5.466C395.628,217.237,392.564,218.219,389.471,219.153z"/>
	<path fill="#9D7263" d="M241.296,426.293c0,0,43.318,25.035,100.122,5.184C341.418,431.477,288.522,458.244,241.296,426.293z"/>
	<path fill="#CC9481" d="M178.591,318.706l-5.242-3.778l3.778-5.24c0.321-0.445,0.22-1.066-0.225-1.388s-1.067-0.22-1.388,0.226
		l-3.778,5.24l-5.24-3.777c-0.445-0.321-1.066-0.221-1.387,0.225c-0.321,0.445-0.221,1.066,0.225,1.387l5.241,3.778l-3.779,5.241
		c-0.32,0.445-0.22,1.066,0.226,1.387c0.445,0.321,1.066,0.221,1.387-0.225l3.778-5.24l5.242,3.777
		c0.445,0.32,1.066,0.221,1.388-0.225C179.137,319.648,179.036,319.027,178.591,318.706z"/>
	<path fill="#CC9481" d="M411.212,276.867l-3.215-3.068l2.08-3.927c0.177-0.333,0.099-0.815-0.175-1.076s-0.638-0.201-0.814,0.132
		l-2.079,3.927l-3.215-3.068c-0.271-0.261-0.637-0.202-0.814,0.132c-0.176,0.334-0.098,0.816,0.176,1.076l3.214,3.068l-2.08,3.927
		c-0.177,0.334-0.099,0.816,0.175,1.077c0.273,0.26,0.637,0.201,0.814-0.132l2.08-3.928l3.214,3.069
		c0.273,0.26,0.638,0.201,0.814-0.132C411.564,277.609,411.486,277.128,411.212,276.867z"/>
	<path fill="#FAB18F" d="M458.201,282.268c0,0,13.494,9.292,6.342,28.687C464.542,310.955,466.009,295.016,458.201,282.268z"/>
	<g>
		<path fill="#FFFFFF" d="M341.121,354.816c-17.439,5.002-34.851,7.408-64.452,2.881c-6.018-0.922-15.126-1.402-19.833-0.652
			c-25.577,4.082-26.104,19.09-22.104,27.59c-10.75,18.75,11.542,35.416,16.104,37.732c41.315,22.385,123.249,5.508,159.332-40.566
			c3.119-3.984,4.786-9.018,5.152-14.27C382.955,368.223,358.898,362.732,341.121,354.816z"/>
	</g>
</g>
</svg>
